HIERARCHY
ROOT Hips
{
	OFFSET -276.353088 91.340736 254.724106
	CHANNELS 6 Xposition Yposition Zposition Zrotation Yrotation Xrotation 
	JOINT LeftUpLeg
	{
		OFFSET 0.103459 1.857828 10.548492
		CHANNELS 3 Zrotation Yrotation Xrotation
		JOINT LeftLeg
		{
			OFFSET 43.500004 -0.000011 -0.000004
			CHANNELS 3 Zrotation Yrotation Xrotation
			JOINT LeftFoot
			{
				OFFSET 42.372200 0.000004 -0.000018
				CHANNELS 3 Zrotation Yrotation Xrotation
				JOINT LeftToe
				{
					OFFSET 17.299999 -0.000001 -0.000005
					CHANNELS 3 Zrotation Yrotation Xrotation
					End Site
					{
						OFFSET 0.000000 0.000000 0.000000
					}
				}
			}
		}
	}
	JOINT RightUpLeg
	{
		OFFSET 0.103456 1.857824 -10.548500
		CHANNELS 3 Zrotation Yrotation Xrotation
		JOINT RightLeg
		{
			OFFSET 43.500046 -0.000004 0.000013
			CHANNELS 3 Zrotation Yrotation Xrotation
			JOINT RightFoot
			{
				OFFSET 42.372269 -0.000015 0.000020
				CHANNELS 3 Zrotation Yrotation Xrotation
				JOINT RightToe
				{
					OFFSET 17.299974 -0.000010 -0.000002
					CHANNELS 3 Zrotation Yrotation Xrotation
					End Site
					{
						OFFSET 0.000000 0.000000 0.000000
					}
				}
			}
		}
	}
	JOINT Spine
	{
		OFFSET 6.901967 -2.603733 0.000003
		CHANNELS 3 Zrotation Yrotation Xrotation
		JOINT Spine1
		{
			OFFSET 12.588101 0.000006 -0.000014
			CHANNELS 3 Zrotation Yrotation Xrotation
			JOINT Spine2
			{
				OFFSET 12.343203 -0.000006 0.000010
				CHANNELS 3 Zrotation Yrotation Xrotation
				JOINT Neck
				{
					OFFSET 25.832886 -0.000004 0.000009
					CHANNELS 3 Zrotation Yrotation Xrotation
					JOINT Head
					{
						OFFSET 11.766619 0.000000 -0.000008
						CHANNELS 3 Zrotation Yrotation Xrotation
						End Site
						{
							OFFSET 0.000000 0.000000 0.000000
						}
					}
				}
				JOINT LeftShoulder
				{
					OFFSET 19.745895 -1.480373 6.000121
					CHANNELS 3 Zrotation Yrotation Xrotation
					JOINT LeftArm
					{
						OFFSET 11.284116 -0.000025 -0.000019
						CHANNELS 3 Zrotation Yrotation Xrotation
						JOINT LeftForeArm
						{
							OFFSET 33.000046 0.000010 0.000041
							CHANNELS 3 Zrotation Yrotation Xrotation
							JOINT LeftHand
							{
								OFFSET 25.200005 0.000005 0.000001
								CHANNELS 3 Zrotation Yrotation Xrotation
								End Site
								{
									OFFSET 0.000000 0.000000 0.000000
								}
							}
						}
					}
				}
				JOINT RightShoulder
				{
					OFFSET 19.746092 -1.480366 -6.000068
					CHANNELS 3 Zrotation Yrotation Xrotation
					JOINT RightArm
					{
						OFFSET 11.284133 -0.000025 -0.000013
						CHANNELS 3 Zrotation Yrotation Xrotation
						JOINT RightForeArm
						{
							OFFSET 33.000114 0.000025 -0.000011
							CHANNELS 3 Zrotation Yrotation Xrotation
							JOINT RightHand
							{
								OFFSET 25.199759 0.000128 0.000418
								CHANNELS 3 Zrotation Yrotation Xrotation
								End Site
								{
									OFFSET 0.000000 0.000000 0.000000
								}
							}
						}
					}
				}
			}
		}
	}
}
MOTION
Frames: 15
Frame Time: 0.033333
-276.353088 91.340736 254.724106 90.343534 -0.373795 98.002628 172.081958 -5.095398 167.623989 -22.211825 1.807748 -7.508653 82.517551 3.434933 -7.808933 21.454553 0.003093 0.000000 171.449141 5.806499 -166.966870 -21.713033 -4.013514 7.825180 84.533857 -3.170385 11.128053 21.454560 -0.003115 -0.000018 6.003576 -0.195991 -0.189916 1.990491 -0.378841 -0.391122 1.672391 -0.381053 -0.388827 11.162795 3.288258 -1.955854 -24.948224 -1.633464 -0.948911 -73.160581 -84.537648 -109.114751 4.728804 21.991971 -25.462177 -57.657984 -24.488467 2.661430 7.031040 -14.949051 14.126784 -131.945922 84.593430 50.033099 7.153956 -19.504300 28.179841 -58.530118 16.701377 -2.189901 2.196431 13.362522 -15.318296 
-276.354309 91.340286 254.725006 90.343541 -0.375936 97.999172 172.078748 -5.097499 167.623989 -22.215786 1.807749 -7.510654 82.517551 3.436271 -7.808933 21.454551 0.003093 -0.000000 171.445316 5.804991 -166.970149 -21.715796 -4.013517 7.825187 84.535790 -3.170376 11.128049 21.454560 -0.003109 -0.000018 6.003580 -0.195998 -0.189913 1.990495 -0.378848 -0.391126 1.672394 -0.381050 -0.388830 11.159404 3.276808 -1.954198 -24.943521 -1.632129 -0.948907 -73.160663 -84.544143 -109.114840 4.735029 21.987156 -25.462156 -57.655826 -24.494165 2.661432 7.033778 -14.933988 14.126762 -131.995305 84.598361 49.983171 7.162347 -19.504298 28.177812 -58.526347 16.706445 -2.189894 2.194130 13.348790 -15.321144 
-276.362000 91.337517 254.729797 90.336956 -0.388157 97.982581 172.058763 -5.110503 167.630246 -22.239694 1.804107 -7.524269 82.523281 3.445560 -7.808936 21.454551 0.003081 -0.000002 171.423418 5.795896 -166.979615 -21.732175 -4.013515 7.825168 84.548241 -3.170379 11.122412 21.454557 -0.003118 -0.000020 6.003585 -0.196002 -0.189910 1.990491 -0.378838 -0.391120 1.672396 -0.381053 -0.388830 11.141406 3.193907 -1.937412 -24.918038 -1.601638 -0.954575 -73.160540 -84.581736 -109.114751 4.772316 21.955312 -25.462177 -57.644659 -24.529919 2.661430 7.050368 -14.840813 14.123957 -132.292063 84.631330 49.682601 7.212563 -19.504300 28.165800 -58.506533 16.739028 -2.189895 2.182151 13.272683 -15.340204 
-276.370789 91.334602 254.734207 90.329621 -0.400384 97.969672 172.036756 -5.125902 167.640395 -22.265729 1.797680 -7.537196 82.529408 3.454695 -7.808931 21.454553 0.003089 -0.000001 171.402067 5.786298 -166.979684 -21.747927 -4.013508 7.825186 84.561580 -3.170373 11.115502 21.454558 -0.003111 -0.000018 6.003569 -0.195995 -0.189913 1.990500 -0.378851 -0.391124 1.672397 -0.381046 -0.388833 11.132914 3.092451 -1.914713 -24.894489 -1.532852 -0.973526 -73.160724 -84.616789 -109.102600 4.807270 21.922605 -25.462184 -57.630718 -24.560880 2.661428 7.067626 -14.773487 14.101291 -132.487064 84.666301 49.484321 7.255240 -19.504302 28.156528 -58.492319 16.759392 -2.189888 2.177047 13.223619 -15.385573 
-276.379211 91.331863 254.738297 90.320776 -0.412282 97.958150 172.014271 -5.143711 167.642540 -22.292822 1.793121 -7.543780 82.537222 3.459660 -7.808931 21.454557 0.003099 0.000003 171.382806 5.775900 -166.978809 -21.760370 -4.012183 7.825169 84.573656 -3.170387 11.107226 21.454557 -0.003106 -0.000016 6.003578 -0.195998 -0.189909 1.990498 -0.378841 -0.391122 1.672389 -0.381053 -0.388834 11.139525 3.002322 -1.902298 -24.875078 -1.464191 -1.002376 -73.158709 -84.647743 -109.101385 4.836490 21.897776 -25.458188 -57.610487 -24.573834 2.661421 7.081427 -14.769360 14.060523 -132.570625 84.689127 49.398899 7.284179 -19.504298 28.146885 -58.476200 16.758153 -2.189897 2.170328 13.188819 -15.438319 
-276.386505 91.329826 254.742004 90.309642 -0.423122 97.947966 171.992291 -5.164608 167.627472 -22.320059 1.792718 -7.538974 82.547009 3.457011 -7.808932 21.454551 0.003093 0.000000 171.368463 5.764500 -166.986022 -21.765636 -4.004462 7.825177 84.581661 -3.170381 11.097233 21.454557 -0.003106 -0.000016 6.003573 -0.195995 -0.189913 1.994974 -0.378846 -0.391125 1.676879 -0.381052 -0.388828 11.158115 2.927753 -1.909815 -24.860208 -1.411451 -1.043698 -73.148321 -84.672475 -109.109178 4.863431 21.880303 -25.446679 -57.581329 -24.574846 2.661432 7.094168 -14.791241 14.063381 -132.575953 84.710424 49.392421 7.309047 -19.504300 28.127907 -58.449733 16.752113 -2.189887 2.143869 13.146500 -15.469576 
-276.392487 91.328438 254.745193 90.297041 -0.433100 97.939312 171.970530 -5.187696 167.596409 -22.347672 1.796062 -7.523796 82.558942 3.447288 -7.808931 21.454555 0.003103 0.000000 171.357862 5.752592 -167.000789 -21.765467 -3.991828 7.825176 84.585671 -3.170370 11.086890 21.454560 -0.003121 -0.000019 6.007522 -0.195996 -0.189906 2.002863 -0.378840 -0.391126 1.684768 -0.381056 -0.388828 11.188665 2.878442 -1.931323 -24.850725 -1.381339 -1.087041 -73.102094 -84.693150 -109.153438 4.888701 21.872410 -25.440942 -57.550996 -24.565742 2.661430 7.108773 -14.807953 14.086684 -132.575857 84.727978 49.391536 7.334856 -19.501460 28.115405 -58.415780 16.741948 -2.189888 2.116101 13.110847 -15.514992 
-276.396790 91.325844 254.747803 90.287390 -0.442580 97.931375 171.946884 -5.207997 167.556343 -22.380607 1.801759 -7.503174 82.574392 3.433987 -7.808932 21.454555 0.003103 0.000002 171.341552 5.744700 -166.998344 -21.776716 -3.989129 7.819308 84.593737 -3.168411 11.079534 21.454557 -0.003107 -0.000016 6.013683 -0.195997 -0.189904 2.015194 -0.378843 -0.391123 1.697073 -0.381046 -0.388835 11.225815 2.854500 -1.962721 -24.848790 -1.372568 -1.128435 -73.030213 -84.705424 -109.224178 4.906103 21.874430 -25.438712 -57.513157 -24.561048 2.661438 7.087389 -14.824091 14.048071 -132.589872 84.742451 49.376595 7.363875 -19.494941 28.108631 -58.381206 16.730337 -2.189897 2.093487 13.084295 -15.579091 
-276.398804 91.321869 254.749695 90.281304 -0.452003 97.924661 171.920656 -5.224003 167.513299 -22.419357 1.808690 -7.480353 82.593086 3.419363 -7.808931 21.454555 0.003095 0.000002 171.318056 5.742081 -166.978031 -21.802240 -3.995268 7.803498 84.606974 -3.159215 11.075118 21.454562 -0.003118 -0.000017 6.021639 -0.195991 -0.189911 2.031091 -0.378845 -0.391122 1.712996 -0.381064 -0.388829 11.263505 2.840462 -2.003762 -24.851763 -1.371238 -1.175506 -72.957827 -84.709051 -109.296229 4.915141 21.881727 -25.428325 -57.471056 -24.566901 2.661426 7.065358 -14.765293 14.029463 -132.648216 84.759137 49.317039 7.389796 -19.484037 28.088627 -58.335765 16.736986 -2.189892 2.073829 13.065826 -15.639658 
-276.399292 91.317284 254.751205 90.276543 -0.461885 97.919702 171.891860 -5.238602 167.473807 -22.462332 1.813471 -7.458304 82.613870 3.405530 -7.808934 21.454551 0.003091 -0.000000 171.290339 5.741247 -166.952800 -21.835524 -4.004630 7.785724 84.621734 -3.148215 11.073577 21.454560 -0.003100 -0.000017 6.030531 -0.196000 -0.189914 2.048879 -0.378840 -0.391120 1.730774 -0.381060 -0.388829 11.301072 2.813164 -2.057609 -24.850574 -1.354571 -1.244660 -72.870783 -84.711162 -109.383267 4.918476 21.886785 -25.395868 -57.425915 -24.577719 2.661431 7.080117 -14.683486 14.016939 -132.752786 84.778016 49.210768 7.409201 -19.467779 28.049618 -58.278275 16.763217 -2.189896 2.056687 13.055670 -15.681074 
-276.398804 91.312317 254.752594 90.272083 -0.473315 97.918268 171.859622 -5.252198 167.445748 -22.509008 1.814545 -7.441109 82.636259 3.395046 -7.808934 21.454553 0.003085 -0.000001 171.259316 5.741823 -166.930397 -21.873220 -4.014795 7.770845 84.637204 -3.138787 11.073985 21.454558 -0.003112 -0.000018 6.039392 -0.196000 -0.189912 2.066607 -0.383326 -0.386969 1.748505 -0.385518 -0.384647 11.339800 2.765347 -2.125121 -24.839211 -1.314560 -1.341287 -72.653064 -84.724002 -109.599968 4.930874 21.891651 -25.327439 -57.381266 -24.587330 2.661426 7.147918 -14.627197 14.010601 -132.896398 84.797297 49.064920 7.426370 -19.447359 28.004588 -58.223688 16.789223 -2.189884 2.036617 13.059227 -15.705024 
-276.397491 91.307068 254.754303 90.268245 -0.487393 97.918575 171.823927 -5.262905 167.434001 -22.557077 1.812470 -7.431612 82.659591 3.389599 -7.808930 21.454553 0.003098 0.000003 171.224523 5.743416 -166.926558 -21.916532 -4.018249 7.767764 84.654109 -3.137338 11.077372 21.454557 -0.003110 -0.000018 6.047225 -0.195988 -0.189905 2.082280 -0.388143 -0.383510 1.764176 -0.390315 -0.381161 11.391136 2.690011 -2.203733 -24.810216 -1.232998 -1.471999 -72.474031 -84.749056 -109.776583 4.942073 21.873025 -25.210776 -57.318688 -24.602673 2.661435 7.216777 -14.636940 14.000402 -133.081824 84.819755 48.877127 7.445450 -19.420222 27.935241 -58.171068 16.821706 -2.189888 2.011539 13.075213 -15.687008 
-276.394714 91.303703 254.755600 90.266366 -0.504636 97.920467 171.791088 -5.270912 167.434725 -22.591716 1.804573 -7.427394 82.676476 3.388114 -7.808927 21.454551 0.003086 -0.000000 171.192094 5.745631 -166.922419 -21.948499 -4.024787 7.767201 84.663637 -3.136451 11.083365 21.454557 -0.003116 -0.000019 6.053361 -0.196267 -0.188074 2.094529 -0.393122 -0.380258 1.776441 -0.395286 -0.377865 11.464386 2.586609 -2.302172 -24.779612 -1.120542 -1.641359 -72.379651 -84.775878 -109.868374 4.937627 21.838014 -25.073915 -57.257824 -24.623838 2.660970 7.206352 -14.743769 13.895528 -133.375686 84.848694 48.579594 7.469511 -19.397319 27.899252 -58.164518 16.824863 -2.189892 2.016839 13.120666 -15.623441 
-276.390503 91.302933 254.756607 90.264700 -0.525416 97.925501 171.763985 -5.276204 167.437771 -22.607433 1.792442 -7.423650 82.684761 3.387291 -7.803133 21.454551 0.003089 -0.000001 171.163926 5.748100 -166.955942 -21.965788 -4.025041 7.789833 84.666690 -3.149837 11.095345 21.454555 -0.003101 -0.000016 6.057462 -0.196368 -0.186172 2.102765 -0.398325 -0.376889 1.784649 -0.400442 -0.374488 11.569614 2.487060 -2.413849 -24.775130 -1.027901 -1.816103 -72.281631 -84.808007 -109.963361 4.927307 21.834674 -25.053006 -57.282584 -24.606050 2.660280 7.212268 -14.793271 13.790779 -133.767015 84.880632 48.184013 7.488759 -19.376319 27.904794 -58.180282 16.807168 -2.189895 2.028687 13.105430 -15.563407 
-276.384888 91.303017 254.758194 90.263313 -0.549764 97.930665 171.738673 -5.277201 167.434820 -22.613257 1.782588 -7.417097 82.689002 3.384592 -7.796076 21.454557 0.003098 0.000000 171.134051 5.752401 -166.953743 -21.979726 -4.032021 7.791899 84.667066 -3.149336 11.103763 21.454557 -0.003116 -0.000019 6.060358 -0.196330 -0.184280 2.108508 -0.403492 -0.372960 1.790407 -0.405584 -0.370524 11.695090 2.393224 -2.516635 -24.813159 -0.941500 -1.978076 -72.209498 -84.840566 -110.032196 4.907302 21.851042 -25.112789 -57.345162 -24.563829 2.659512 7.243189 -14.807145 13.758655 -134.165870 84.911764 47.780783 7.502107 -19.355462 27.904878 -58.218340 16.793466 -2.189892 2.059694 13.092453 -15.570934 
